<svg width="210" height="94" viewBox="0 0 210 94" fill="none" xmlns="http://www.w3.org/2000/svg">
<path d="M31.0078 20.8739C28.1685 20.8739 25.8783 23.1641 25.8783 26.0033C25.8783 28.8426 28.1685 31.1328 31.0078 31.1328C33.8471 31.1328 36.1373 28.8426 36.1373 26.0033C36.1373 23.1641 33.8471 20.8739 31.0078 20.8739ZM31.0078 29.3382C29.173 29.3382 27.673 27.8426 27.673 26.0033C27.673 24.1641 29.1685 22.6685 31.0078 22.6685C32.8471 22.6685 34.3426 24.1641 34.3426 26.0033C34.3426 27.8426 32.8426 29.3382 31.0078 29.3382ZM37.5435 20.6641C37.5435 21.3292 37.0078 21.8605 36.3471 21.8605C35.6819 21.8605 35.1506 21.3248 35.1506 20.6641C35.1506 20.0033 35.6864 19.4676 36.3471 19.4676C37.0078 19.4676 37.5435 20.0033 37.5435 20.6641ZM40.9408 21.8783C40.8649 20.2757 40.4989 18.856 39.3247 17.6864C38.1551 16.5167 36.7355 16.1507 35.1328 16.0703C33.481 15.9766 28.5301 15.9766 26.8783 16.0703C25.2801 16.1462 23.8605 16.5123 22.6864 17.6819C21.5123 18.8516 21.1507 20.2712 21.0703 21.8739C20.9766 23.5257 20.9766 28.4766 21.0703 30.1283C21.1462 31.731 21.5123 33.1507 22.6864 34.3203C23.8605 35.49 25.2757 35.856 26.8783 35.9364C28.5301 36.0301 33.481 36.0301 35.1328 35.9364C36.7355 35.8605 38.1551 35.4944 39.3247 34.3203C40.4944 33.1507 40.8605 31.731 40.9408 30.1283C41.0346 28.4766 41.0346 23.5301 40.9408 21.8783ZM38.8069 31.9007C38.4587 32.7757 37.7846 33.4498 36.9051 33.8025C35.5881 34.3248 32.4632 34.2042 31.0078 34.2042C29.5524 34.2042 26.423 34.3203 25.1105 33.8025C24.2355 33.4542 23.5614 32.7801 23.2087 31.9007C22.6864 30.5837 22.8069 27.4587 22.8069 26.0033C22.8069 24.548 22.6908 21.4185 23.2087 20.106C23.5569 19.231 24.231 18.5569 25.1105 18.2042C26.4274 17.6819 29.5524 17.8025 31.0078 17.8025C32.4632 17.8025 35.5926 17.6864 36.9051 18.2042C37.7801 18.5525 38.4542 19.2266 38.8069 20.106C39.3292 21.423 39.2087 24.548 39.2087 26.0033C39.2087 27.4587 39.3292 30.5882 38.8069 31.9007Z" fill="#0D0D0D"/>
<path d="M70.3558 27.1705L70.8744 23.7914H67.6321V21.5987C67.6321 20.6742 68.085 19.7731 69.5371 19.7731H71.0111V16.8963C71.0111 16.8963 69.6735 16.668 68.3946 16.668C65.7245 16.668 63.9792 18.2864 63.9792 21.2161V23.7914H61.0111V27.1705H63.9792V35.3391H67.6321V27.1705H70.3558Z" fill="#0D0D0D"/>
<path d="M97.7007 31.9548C97.7007 32.0354 97.6079 32.0999 97.491 32.0999C97.3579 32.112 97.2652 32.0475 97.2652 31.9548C97.2652 31.8741 97.3579 31.8096 97.4748 31.8096C97.5958 31.7975 97.7007 31.862 97.7007 31.9548ZM96.4466 31.7733C96.4184 31.854 96.499 31.9467 96.62 31.9709C96.7248 32.0112 96.8458 31.9709 96.87 31.8903C96.8942 31.8096 96.8176 31.7169 96.6966 31.6806C96.5918 31.6524 96.4748 31.6927 96.4466 31.7733ZM98.2289 31.7048C98.1119 31.733 98.0313 31.8096 98.0434 31.9024C98.0555 31.983 98.1603 32.0354 98.2813 32.0072C98.3982 31.979 98.4789 31.9024 98.4668 31.8217C98.4547 31.7451 98.3458 31.6927 98.2289 31.7048ZM100.882 16.2532C95.2894 16.2532 91.0111 20.4991 91.0111 26.0919C91.0111 30.5637 93.8257 34.3903 97.8458 35.737C98.3619 35.8298 98.5434 35.5112 98.5434 35.2491C98.5434 34.9991 98.5313 33.6201 98.5313 32.7733C98.5313 32.7733 95.7087 33.3782 95.116 31.5717C95.116 31.5717 94.6563 30.3983 93.995 30.0959C93.995 30.0959 93.0716 29.4629 94.0595 29.4749C94.0595 29.4749 95.0636 29.5556 95.616 30.5153C96.499 32.0717 97.9789 31.6241 98.5555 31.358C98.6482 30.7129 98.9103 30.2653 99.2007 29.9991C96.9466 29.7491 94.6724 29.4225 94.6724 25.5435C94.6724 24.4346 94.9789 23.8782 95.624 23.1685C95.5192 22.9064 95.1765 21.8258 95.7289 20.4306C96.5716 20.1685 98.5111 21.5193 98.5111 21.5193C99.3176 21.2935 100.185 21.1766 101.043 21.1766C101.902 21.1766 102.769 21.2935 103.576 21.5193C103.576 21.5193 105.515 20.1645 106.358 20.4306C106.91 21.8298 106.568 22.9064 106.463 23.1685C107.108 23.8822 107.503 24.4387 107.503 25.5435C107.503 29.4346 105.128 29.7451 102.874 29.9991C103.245 30.3177 103.56 30.9225 103.56 31.8701C103.56 33.229 103.547 34.9104 103.547 35.2411C103.547 35.5032 103.733 35.8217 104.245 35.729C108.277 34.3903 111.011 30.5637 111.011 26.0919C111.011 20.4991 106.475 16.2532 100.882 16.2532ZM94.9305 30.1604C94.8781 30.2008 94.8902 30.2935 94.9587 30.3701C95.0232 30.4346 95.116 30.4629 95.1684 30.4104C95.2208 30.3701 95.2087 30.2774 95.1402 30.2008C95.0757 30.1362 94.9829 30.108 94.9305 30.1604ZM94.495 29.8338C94.4668 29.8862 94.5071 29.9508 94.5878 29.9911C94.6523 30.0314 94.7329 30.0193 94.7611 29.9629C94.7894 29.9104 94.749 29.8459 94.6684 29.8056C94.5878 29.7814 94.5232 29.7935 94.495 29.8338ZM95.8015 31.2693C95.7369 31.3217 95.7611 31.4427 95.8539 31.5193C95.9466 31.612 96.0636 31.6241 96.116 31.5596C96.1684 31.5072 96.1442 31.3862 96.0636 31.3096C95.9748 31.2169 95.8539 31.2048 95.8015 31.2693ZM95.3418 30.6766C95.2773 30.7169 95.2773 30.8217 95.3418 30.9145C95.4063 31.0072 95.5152 31.0475 95.5676 31.0072C95.6321 30.9548 95.6321 30.8499 95.5676 30.7572C95.5111 30.6645 95.4063 30.6241 95.3418 30.6766Z" fill="#0D0D0D"/>
<path d="M140.699 16.3159C135.357 16.3159 131.011 20.6617 131.011 26.0034C131.011 31.3451 135.357 35.6909 140.699 35.6909C146.04 35.6909 150.386 31.3451 150.386 26.0034C150.386 20.6617 146.04 16.3159 140.699 16.3159ZM147.104 20.7833C148.256 22.1914 148.954 23.9848 148.972 25.9378C148.699 25.8801 145.964 25.3253 143.21 25.6715C142.986 25.123 142.774 24.6405 142.483 24.046C145.543 22.7969 146.929 21.0193 147.104 20.7833ZM146.184 19.8265C146.035 20.0385 144.789 21.7126 141.847 22.8155C140.491 20.3242 138.988 18.2777 138.76 17.9714C141.384 17.3389 144.149 18.021 146.184 19.8265ZM137.181 18.5276C137.399 18.8268 138.878 20.8759 140.249 23.3131C136.378 24.341 132.969 24.3262 132.599 24.3213C133.135 21.7536 134.866 19.6196 137.181 18.5276ZM132.424 26.016C132.424 25.9314 132.426 25.8472 132.428 25.7632C132.79 25.7706 136.8 25.8223 140.932 24.5856C141.169 25.0492 141.396 25.5198 141.603 25.9899C138.611 26.8326 135.893 29.2526 134.551 31.5487C133.23 30.0817 132.424 28.1413 132.424 26.016ZM135.62 32.5439C136.484 30.777 138.83 28.4962 142.166 27.3581C143.327 30.377 143.808 32.9071 143.931 33.633C141.27 34.7663 138.071 34.4554 135.62 32.5439ZM145.322 32.8755C145.237 32.3721 144.797 29.9498 143.714 26.9758C146.307 26.5607 148.586 27.2401 148.869 27.3295C148.5 29.6319 147.178 31.6203 145.322 32.8755Z" fill="#0D0D0D"/>
<path d="M188.33 21.9298C188.343 22.1075 188.343 22.2851 188.343 22.4628C188.343 27.8816 184.219 34.1252 176.681 34.1252C174.358 34.1252 172.201 33.4526 170.386 32.2851C170.716 32.3232 171.033 32.3359 171.376 32.3359C173.292 32.3359 175.056 31.6887 176.465 30.5846C174.663 30.5466 173.153 29.3664 172.632 27.742C172.886 27.78 173.14 27.8054 173.406 27.8054C173.774 27.8054 174.143 27.7546 174.485 27.6658C172.607 27.2851 171.198 25.6354 171.198 23.643V23.5923C171.744 23.8968 172.379 24.0872 173.051 24.1125C171.947 23.3765 171.224 22.1201 171.224 20.6988C171.224 19.9374 171.427 19.2394 171.782 18.6303C173.8 21.1176 176.833 22.7419 180.234 22.9196C180.17 22.6151 180.132 22.2978 180.132 21.9806C180.132 19.7217 181.96 17.8816 184.231 17.8816C185.411 17.8816 186.477 18.3765 187.226 19.176C188.153 18.9983 189.041 18.6557 189.828 18.1862C189.523 19.138 188.876 19.9375 188.026 20.445C188.851 20.3562 189.65 20.1278 190.386 19.8105C189.828 20.6227 189.13 21.346 188.33 21.9298Z" fill="#0D0D0D"/>
<path d="M31.0078 60.8805C28.1685 60.8805 25.8783 63.1707 25.8783 66.0099C25.8783 68.8492 28.1685 71.1394 31.0078 71.1394C33.8471 71.1394 36.1373 68.8492 36.1373 66.0099C36.1373 63.1707 33.8471 60.8805 31.0078 60.8805ZM31.0078 69.3448C29.173 69.3448 27.673 67.8492 27.673 66.0099C27.673 64.1707 29.1685 62.6751 31.0078 62.6751C32.8471 62.6751 34.3426 64.1707 34.3426 66.0099C34.3426 67.8492 32.8426 69.3448 31.0078 69.3448ZM37.5435 60.6707C37.5435 61.3358 37.0078 61.8671 36.3471 61.8671C35.6819 61.8671 35.1506 61.3314 35.1506 60.6707C35.1506 60.0099 35.6864 59.4742 36.3471 59.4742C37.0078 59.4742 37.5435 60.0099 37.5435 60.6707ZM40.9408 61.8849C40.8649 60.2823 40.4989 58.8626 39.3247 57.693C38.1551 56.5233 36.7355 56.1573 35.1328 56.0769C33.481 55.9832 28.5301 55.9832 26.8783 56.0769C25.2801 56.1528 23.8605 56.5189 22.6864 57.6885C21.5123 58.8582 21.1507 60.2778 21.0703 61.8805C20.9766 63.5323 20.9766 68.4832 21.0703 70.1349C21.1462 71.7376 21.5123 73.1573 22.6864 74.3269C23.8605 75.4965 25.2757 75.8626 26.8783 75.943C28.5301 76.0367 33.481 76.0367 35.1328 75.943C36.7355 75.8671 38.1551 75.501 39.3247 74.3269C40.4944 73.1573 40.8605 71.7376 40.9408 70.1349C41.0346 68.4832 41.0346 63.5367 40.9408 61.8849ZM38.8069 71.9073C38.4587 72.7823 37.7846 73.4564 36.9051 73.809C35.5881 74.3314 32.4632 74.2108 31.0078 74.2108C29.5524 74.2108 26.423 74.3269 25.1105 73.809C24.2355 73.4608 23.5614 72.7867 23.2087 71.9073C22.6864 70.5903 22.8069 67.4653 22.8069 66.0099C22.8069 64.5546 22.6908 61.4251 23.2087 60.1126C23.5569 59.2376 24.231 58.5635 25.1105 58.2108C26.4274 57.6885 29.5524 57.809 31.0078 57.809C32.4632 57.809 35.5926 57.693 36.9051 58.2108C37.7801 58.559 38.4542 59.2332 38.8069 60.1126C39.3292 61.4296 39.2087 64.5546 39.2087 66.0099C39.2087 67.4653 39.3292 70.5948 38.8069 71.9073Z" fill="#3DB370"/>
<path d="M70.3558 67.1771L70.8744 63.798H67.6321V61.6053C67.6321 60.6808 68.085 59.7797 69.5371 59.7797H71.0111V56.9028C71.0111 56.9028 69.6735 56.6746 68.3946 56.6746C65.7245 56.6746 63.9792 58.293 63.9792 61.2227V63.798H61.0111V67.1771H63.9792V75.3457H67.6321V67.1771H70.3558Z" fill="#3DB370"/>
<path d="M97.7007 71.9614C97.7007 72.042 97.6079 72.1065 97.491 72.1065C97.3579 72.1186 97.2652 72.0541 97.2652 71.9614C97.2652 71.8807 97.3579 71.8162 97.4748 71.8162C97.5958 71.8041 97.7007 71.8686 97.7007 71.9614ZM96.4466 71.7799C96.4184 71.8606 96.499 71.9533 96.62 71.9775C96.7248 72.0178 96.8458 71.9775 96.87 71.8969C96.8942 71.8162 96.8176 71.7235 96.6966 71.6872C96.5918 71.659 96.4748 71.6993 96.4466 71.7799ZM98.2289 71.7114C98.1119 71.7396 98.0313 71.8162 98.0434 71.909C98.0555 71.9896 98.1603 72.042 98.2813 72.0138C98.3982 71.9856 98.4789 71.909 98.4668 71.8283C98.4547 71.7517 98.3458 71.6993 98.2289 71.7114ZM100.882 56.2598C95.2894 56.2598 91.0111 60.5057 91.0111 66.0985C91.0111 70.5702 93.8257 74.3969 97.8458 75.7436C98.3619 75.8364 98.5434 75.5178 98.5434 75.2557C98.5434 75.0057 98.5313 73.6267 98.5313 72.7799C98.5313 72.7799 95.7087 73.3848 95.116 71.5783C95.116 71.5783 94.6563 70.4049 93.995 70.1025C93.995 70.1025 93.0716 69.4694 94.0595 69.4815C94.0595 69.4815 95.0636 69.5622 95.616 70.5219C96.499 72.0783 97.9789 71.6307 98.5555 71.3646C98.6482 70.7194 98.9103 70.2719 99.2007 70.0057C96.9466 69.7557 94.6724 69.4291 94.6724 65.5501C94.6724 64.4412 94.9789 63.8848 95.624 63.1751C95.5192 62.913 95.1765 61.8323 95.7289 60.4372C96.5716 60.1751 98.5111 61.5259 98.5111 61.5259C99.3176 61.3001 100.185 61.1832 101.043 61.1832C101.902 61.1832 102.769 61.3001 103.576 61.5259C103.576 61.5259 105.515 60.1711 106.358 60.4372C106.91 61.8364 106.568 62.913 106.463 63.1751C107.108 63.8888 107.503 64.4452 107.503 65.5501C107.503 69.4412 105.128 69.7517 102.874 70.0057C103.245 70.3243 103.56 70.9291 103.56 71.8767C103.56 73.2356 103.547 74.917 103.547 75.2477C103.547 75.5098 103.733 75.8283 104.245 75.7356C108.277 74.3969 111.011 70.5702 111.011 66.0985C111.011 60.5057 106.475 56.2598 100.882 56.2598ZM94.9305 70.167C94.8781 70.2073 94.8902 70.3001 94.9587 70.3767C95.0232 70.4412 95.116 70.4694 95.1684 70.417C95.2208 70.3767 95.2087 70.284 95.1402 70.2073C95.0757 70.1428 94.9829 70.1146 94.9305 70.167ZM94.495 69.8404C94.4668 69.8928 94.5071 69.9573 94.5878 69.9977C94.6523 70.038 94.7329 70.0259 94.7611 69.9694C94.7894 69.917 94.749 69.8525 94.6684 69.8122C94.5878 69.788 94.5232 69.8001 94.495 69.8404ZM95.8015 71.2759C95.7369 71.3283 95.7611 71.4493 95.8539 71.5259C95.9466 71.6186 96.0636 71.6307 96.116 71.5662C96.1684 71.5138 96.1442 71.3928 96.0636 71.3162C95.9748 71.2235 95.8539 71.2114 95.8015 71.2759ZM95.3418 70.6832C95.2773 70.7235 95.2773 70.8283 95.3418 70.9211C95.4063 71.0138 95.5152 71.0541 95.5676 71.0138C95.6321 70.9614 95.6321 70.8565 95.5676 70.7638C95.5111 70.6711 95.4063 70.6307 95.3418 70.6832Z" fill="#3DB370"/>
<path d="M140.699 56.3225C135.357 56.3225 131.011 60.6683 131.011 66.01C131.011 71.3517 135.357 75.6975 140.699 75.6975C146.04 75.6975 150.386 71.3517 150.386 66.01C150.386 60.6683 146.04 56.3225 140.699 56.3225ZM147.104 60.7899C148.256 62.198 148.954 63.9914 148.972 65.9444C148.699 65.8867 145.964 65.3318 143.21 65.6781C142.986 65.1296 142.774 64.6471 142.483 64.0525C145.543 62.8034 146.929 61.0259 147.104 60.7899ZM146.184 59.8331C146.035 60.045 144.789 61.7192 141.847 62.8221C140.491 60.3308 138.988 58.2843 138.76 57.978C141.384 57.3455 144.149 58.0276 146.184 59.8331ZM137.181 58.5342C137.399 58.8334 138.878 60.8825 140.249 63.3197C136.378 64.3476 132.969 64.3328 132.599 64.3279C133.135 61.7602 134.866 59.6261 137.181 58.5342ZM132.424 66.0226C132.424 65.938 132.426 65.8538 132.428 65.7698C132.79 65.7772 136.8 65.8289 140.932 64.5922C141.169 65.0558 141.396 65.5264 141.603 65.9965C138.611 66.8392 135.893 69.2592 134.551 71.5553C133.23 70.0883 132.424 68.1479 132.424 66.0226ZM135.62 72.5505C136.484 70.7836 138.83 68.5027 142.166 67.3647C143.327 70.3836 143.808 72.9136 143.931 73.6396C141.27 74.7729 138.071 74.462 135.62 72.5505ZM145.322 72.8821C145.237 72.3787 144.797 69.9564 143.714 66.9824C146.307 66.5673 148.586 67.2467 148.869 67.3361C148.5 69.6384 147.178 71.6268 145.322 72.8821Z" fill="#3DB370"/>
<path d="M188.33 61.9364C188.343 62.114 188.343 62.2917 188.343 62.4694C188.343 67.8881 184.219 74.1318 176.681 74.1318C174.358 74.1318 172.201 73.4592 170.386 72.2917C170.716 72.3298 171.033 72.3425 171.376 72.3425C173.292 72.3425 175.056 71.6953 176.465 70.5912C174.663 70.5531 173.153 69.3729 172.632 67.7486C172.886 67.7866 173.14 67.812 173.406 67.812C173.774 67.812 174.143 67.7612 174.485 67.6724C172.607 67.2917 171.198 65.642 171.198 63.6496V63.5988C171.744 63.9034 172.379 64.0938 173.051 64.1191C171.947 63.3831 171.224 62.1267 171.224 60.7054C171.224 59.944 171.427 59.246 171.782 58.6369C173.8 61.1242 176.833 62.7485 180.234 62.9262C180.17 62.6217 180.132 62.3044 180.132 61.9872C180.132 59.7283 181.96 57.8882 184.231 57.8882C185.411 57.8882 186.477 58.3831 187.226 59.1826C188.153 59.0049 189.041 58.6623 189.828 58.1928C189.523 59.1446 188.876 59.944 188.026 60.4516C188.851 60.3628 189.65 60.1344 190.386 59.8171C189.828 60.6293 189.13 61.3526 188.33 61.9364Z" fill="#3DB370"/>
</svg>
