<svg width="76" height="34" viewBox="0 0 76 34" fill="none" xmlns="http://www.w3.org/2000/svg">
<path d="M22.1539 11L21.4293 8.62109H17.7857L17.0611 11H14.7779L18.3052 0.964844H20.8961L24.4371 11H22.1539ZM20.9234 6.84375L20.1988 4.51953C20.1532 4.36458 20.0917 4.16634 20.0142 3.9248C19.9413 3.67871 19.8661 3.43034 19.7886 3.17969C19.7157 2.92448 19.6565 2.70345 19.6109 2.5166C19.5653 2.70345 19.5015 2.93587 19.4195 3.21387C19.342 3.4873 19.2668 3.74707 19.1939 3.99316C19.121 4.23926 19.0686 4.41471 19.0367 4.51953L18.3189 6.84375H20.9234ZM28.2376 11.1367C27.3854 11.1367 26.6904 10.804 26.1526 10.1387C25.6194 9.46875 25.3528 8.48665 25.3528 7.19238C25.3528 5.88444 25.624 4.89551 26.1663 4.22559C26.7086 3.55111 27.4173 3.21387 28.2923 3.21387C28.6569 3.21387 28.9781 3.264 29.2561 3.36426C29.5341 3.46452 29.7734 3.59896 29.9739 3.76758C30.179 3.9362 30.3522 4.12533 30.4934 4.33496H30.5618C30.5345 4.18913 30.5003 3.97493 30.4593 3.69238C30.4228 3.40527 30.4046 3.11133 30.4046 2.81055V0.363281H32.4964V11H30.8968L30.4934 10.0088H30.4046C30.2724 10.2184 30.1061 10.4098 29.9055 10.583C29.7096 10.7516 29.4749 10.8861 29.2014 10.9863C28.928 11.0866 28.6067 11.1367 28.2376 11.1367ZM28.969 9.47559C29.5387 9.47559 29.9397 9.30697 30.1721 8.96973C30.4091 8.62793 30.5345 8.11523 30.5481 7.43164V7.20605C30.5481 6.46322 30.4342 5.89583 30.2063 5.50391C29.9785 5.10742 29.5546 4.90918 28.9348 4.90918C28.4746 4.90918 28.1145 5.10742 27.8548 5.50391C27.595 5.90039 27.4651 6.47233 27.4651 7.21973C27.4651 7.96712 27.595 8.52995 27.8548 8.9082C28.1191 9.28646 28.4905 9.47559 28.969 9.47559ZM41.9023 7.16504C41.9023 7.80306 41.8158 8.36816 41.6426 8.86035C41.474 9.35254 41.2256 9.76953 40.8975 10.1113C40.5739 10.4486 40.182 10.7038 39.7217 10.877C39.266 11.0501 38.751 11.1367 38.1768 11.1367C37.639 11.1367 37.1445 11.0501 36.6934 10.877C36.2467 10.7038 35.8571 10.4486 35.5244 10.1113C35.1963 9.76953 34.9411 9.35254 34.7588 8.86035C34.5811 8.36816 34.4922 7.80306 34.4922 7.16504C34.4922 6.31738 34.6426 5.59961 34.9434 5.01172C35.2441 4.42383 35.6725 3.97721 36.2285 3.67188C36.7845 3.36654 37.4476 3.21387 38.2178 3.21387C38.9333 3.21387 39.5667 3.36654 40.1182 3.67188C40.6742 3.97721 41.1094 4.42383 41.4238 5.01172C41.7428 5.59961 41.9023 6.31738 41.9023 7.16504ZM36.6182 7.16504C36.6182 7.66634 36.6729 8.08789 36.7822 8.42969C36.8916 8.77148 37.0625 9.02897 37.2949 9.20215C37.5273 9.37533 37.8304 9.46191 38.2041 9.46191C38.5732 9.46191 38.8717 9.37533 39.0996 9.20215C39.332 9.02897 39.5007 8.77148 39.6055 8.42969C39.7148 8.08789 39.7695 7.66634 39.7695 7.16504C39.7695 6.65918 39.7148 6.23991 39.6055 5.90723C39.5007 5.56999 39.332 5.31706 39.0996 5.14844C38.8672 4.97982 38.5641 4.89551 38.1904 4.89551C37.639 4.89551 37.238 5.08464 36.9873 5.46289C36.7412 5.84115 36.6182 6.40853 36.6182 7.16504ZM45.99 0.363281V2.83789C45.99 3.125 45.9808 3.40983 45.9626 3.69238C45.9489 3.97493 45.9307 4.19368 45.9079 4.34863H45.99C46.1905 4.03418 46.4639 3.76758 46.8103 3.54883C47.1566 3.32552 47.6055 3.21387 48.157 3.21387C49.0137 3.21387 49.7087 3.54883 50.2419 4.21875C50.7751 4.88867 51.0417 5.87077 51.0417 7.16504C51.0417 8.03548 50.9187 8.76693 50.6726 9.35938C50.4265 9.94727 50.0824 10.3916 49.6404 10.6924C49.1983 10.9886 48.6856 11.1367 48.1023 11.1367C47.5417 11.1367 47.0997 11.0365 46.7761 10.8359C46.4525 10.6354 46.1905 10.4098 45.99 10.1592H45.8464L45.4978 11H43.905V0.363281H45.99ZM47.487 4.88184C47.1224 4.88184 46.8331 4.95703 46.6189 5.10742C46.4047 5.25781 46.2474 5.4834 46.1472 5.78418C46.0515 6.08496 45.9991 6.46549 45.99 6.92578V7.15137C45.99 7.89421 46.0993 8.46387 46.3181 8.86035C46.5368 9.25228 46.9356 9.44824 47.5144 9.44824C47.9428 9.44824 48.2823 9.25 48.5329 8.85352C48.7881 8.45703 48.9157 7.88509 48.9157 7.1377C48.9157 6.3903 48.7881 5.82747 48.5329 5.44922C48.2777 5.07096 47.9291 4.88184 47.487 4.88184ZM56.1957 3.21387C56.9021 3.21387 57.5105 3.35059 58.0209 3.62402C58.5314 3.8929 58.9256 4.28483 59.2036 4.7998C59.4815 5.31478 59.6205 5.94368 59.6205 6.68652V7.69824H54.6918C54.7146 8.28613 54.8901 8.7487 55.2182 9.08594C55.5509 9.41862 56.0112 9.58496 56.5991 9.58496C57.0867 9.58496 57.5333 9.53483 57.9389 9.43457C58.3445 9.33431 58.7615 9.18392 59.1899 8.9834V10.5967C58.8116 10.7835 58.4151 10.9202 58.0004 11.0068C57.5903 11.0934 57.0912 11.1367 56.5034 11.1367C55.7377 11.1367 55.0587 10.9954 54.4662 10.7129C53.8784 10.4303 53.4158 9.99967 53.0786 9.4209C52.7459 8.84212 52.5795 8.11296 52.5795 7.2334C52.5795 6.34017 52.7299 5.59733 53.0307 5.00488C53.336 4.40788 53.7599 3.96126 54.3022 3.66504C54.8445 3.36426 55.4757 3.21387 56.1957 3.21387ZM56.2094 4.69727C55.8038 4.69727 55.4666 4.82715 55.1977 5.08691C54.9334 5.34668 54.7807 5.75456 54.7397 6.31055H57.6655C57.6609 6.00065 57.6039 5.72493 57.4946 5.4834C57.3898 5.24186 57.2302 5.05046 57.0161 4.90918C56.8064 4.7679 56.5375 4.69727 56.2094 4.69727ZM3.28039 20.0059C4.57011 20.0059 5.51119 20.2839 6.10363 20.8398C6.69608 21.3913 6.99231 22.1523 6.99231 23.123C6.99231 23.5605 6.92623 23.9798 6.79406 24.3809C6.6619 24.7773 6.44543 25.1305 6.14465 25.4404C5.84843 25.7503 5.45194 25.9964 4.9552 26.1787C4.45845 26.3564 3.8455 26.4453 3.11633 26.4453H2.20715V30H0.0880089V20.0059H3.28039ZM3.17102 21.7422H2.20715V24.709H2.90442C3.3009 24.709 3.64498 24.6566 3.93664 24.5518C4.22831 24.4469 4.45389 24.2829 4.6134 24.0596C4.7729 23.8363 4.85266 23.5492 4.85266 23.1982C4.85266 22.7061 4.71594 22.3415 4.4425 22.1045C4.16906 21.863 3.74524 21.7422 3.17102 21.7422ZM11.0799 19.3633V21.5303C11.0799 21.9085 11.0663 22.2686 11.0389 22.6104C11.0161 22.9521 10.9979 23.1937 10.9842 23.335H11.0936C11.2577 23.0706 11.4513 22.8564 11.6746 22.6924C11.9025 22.5283 12.1532 22.4076 12.4266 22.3301C12.7 22.2526 12.994 22.2139 13.3084 22.2139C13.8599 22.2139 14.3407 22.3118 14.7508 22.5078C15.161 22.6992 15.48 23.0023 15.7079 23.417C15.9357 23.8271 16.0496 24.3604 16.0496 25.0166V30H13.9647V25.5361C13.9647 24.9893 13.8644 24.5768 13.6639 24.2988C13.4634 24.0208 13.1535 23.8818 12.7342 23.8818C12.3149 23.8818 11.9845 23.9798 11.743 24.1758C11.5015 24.3672 11.3306 24.652 11.2303 25.0303C11.1301 25.404 11.0799 25.862 11.0799 26.4043V30H8.99496V19.3633H11.0799ZM25.4214 26.165C25.4214 26.8031 25.3349 27.3682 25.1617 27.8604C24.9931 28.3525 24.7447 28.7695 24.4166 29.1113C24.093 29.4486 23.7011 29.7038 23.2408 29.877C22.7851 30.0501 22.2701 30.1367 21.6959 30.1367C21.1581 30.1367 20.6636 30.0501 20.2125 29.877C19.7658 29.7038 19.3762 29.4486 19.0435 29.1113C18.7154 28.7695 18.4602 28.3525 18.2779 27.8604C18.1002 27.3682 18.0113 26.8031 18.0113 26.165C18.0113 25.3174 18.1617 24.5996 18.4625 24.0117C18.7632 23.4238 19.1916 22.9772 19.7476 22.6719C20.3036 22.3665 20.9667 22.2139 21.7369 22.2139C22.4524 22.2139 23.0858 22.3665 23.6373 22.6719C24.1933 22.9772 24.6285 23.4238 24.9429 24.0117C25.2619 24.5996 25.4214 25.3174 25.4214 26.165ZM20.1373 26.165C20.1373 26.6663 20.192 27.0879 20.3013 27.4297C20.4107 27.7715 20.5816 28.029 20.814 28.2021C21.0464 28.3753 21.3495 28.4619 21.7232 28.4619C22.0923 28.4619 22.3908 28.3753 22.6187 28.2021C22.8511 28.029 23.0198 27.7715 23.1246 27.4297C23.2339 27.0879 23.2886 26.6663 23.2886 26.165C23.2886 25.6592 23.2339 25.2399 23.1246 24.9072C23.0198 24.57 22.8511 24.3171 22.6187 24.1484C22.3863 23.9798 22.0832 23.8955 21.7095 23.8955C21.1581 23.8955 20.7571 24.0846 20.5064 24.4629C20.2603 24.8411 20.1373 25.4085 20.1373 26.165ZM30.6438 28.4756C30.8717 28.4756 31.0927 28.4528 31.3069 28.4072C31.5257 28.3617 31.7421 28.3047 31.9563 28.2363V29.7881C31.733 29.8883 31.455 29.9704 31.1223 30.0342C30.7942 30.1025 30.4342 30.1367 30.0423 30.1367C29.5865 30.1367 29.1764 30.0638 28.8118 29.918C28.4518 29.7676 28.1669 29.5101 27.9573 29.1455C27.7522 28.7764 27.6497 28.2637 27.6497 27.6074V23.9229H26.6516V23.041L27.8001 22.3438L28.4016 20.7305H29.7346V22.3574H31.8743V23.9229H29.7346V27.6074C29.7346 27.8991 29.8167 28.1178 29.9807 28.2637C30.1494 28.4049 30.3704 28.4756 30.6438 28.4756ZM40.7334 26.165C40.7334 26.8031 40.6468 27.3682 40.4736 27.8604C40.305 28.3525 40.0566 28.7695 39.7285 29.1113C39.4049 29.4486 39.013 29.7038 38.5527 29.877C38.097 30.0501 37.582 30.1367 37.0078 30.1367C36.4701 30.1367 35.9756 30.0501 35.5244 29.877C35.0778 29.7038 34.6882 29.4486 34.3555 29.1113C34.0273 28.7695 33.7721 28.3525 33.5898 27.8604C33.4121 27.3682 33.3232 26.8031 33.3232 26.165C33.3232 25.3174 33.4736 24.5996 33.7744 24.0117C34.0752 23.4238 34.5036 22.9772 35.0596 22.6719C35.6156 22.3665 36.2786 22.2139 37.0488 22.2139C37.7643 22.2139 38.3978 22.3665 38.9492 22.6719C39.5052 22.9772 39.9404 23.4238 40.2549 24.0117C40.5739 24.5996 40.7334 25.3174 40.7334 26.165ZM35.4492 26.165C35.4492 26.6663 35.5039 27.0879 35.6133 27.4297C35.7227 27.7715 35.8936 28.029 36.126 28.2021C36.3584 28.3753 36.6615 28.4619 37.0352 28.4619C37.4043 28.4619 37.7028 28.3753 37.9307 28.2021C38.1631 28.029 38.3317 27.7715 38.4365 27.4297C38.5459 27.0879 38.6006 26.6663 38.6006 26.165C38.6006 25.6592 38.5459 25.2399 38.4365 24.9072C38.3317 24.57 38.1631 24.3171 37.9307 24.1484C37.6982 23.9798 37.3952 23.8955 37.0215 23.8955C36.4701 23.8955 36.069 24.0846 35.8184 24.4629C35.5723 24.8411 35.4492 25.4085 35.4492 26.165ZM48.0681 27.7305C48.0681 28.25 47.945 28.6898 47.6989 29.0498C47.4574 29.4053 47.0951 29.6764 46.612 29.8633C46.129 30.0456 45.5274 30.1367 44.8073 30.1367C44.2741 30.1367 43.8161 30.1025 43.4333 30.0342C43.0551 29.9658 42.6723 29.8519 42.2849 29.6924V27.9697C42.6996 28.1566 43.1439 28.3115 43.6179 28.4346C44.0964 28.5531 44.5157 28.6123 44.8757 28.6123C45.2813 28.6123 45.5707 28.5531 45.7439 28.4346C45.9216 28.3115 46.0105 28.152 46.0105 27.9561C46.0105 27.8285 45.974 27.7145 45.9011 27.6143C45.8327 27.5094 45.6823 27.3932 45.4499 27.2656C45.2175 27.1335 44.8529 26.9626 44.3562 26.7529C43.8777 26.5524 43.4835 26.3496 43.1736 26.1445C42.8682 25.9395 42.6404 25.6979 42.49 25.4199C42.3441 25.1374 42.2712 24.7796 42.2712 24.3467C42.2712 23.6403 42.5447 23.1094 43.0915 22.7539C43.643 22.3939 44.379 22.2139 45.2995 22.2139C45.7735 22.2139 46.2247 22.2617 46.653 22.3574C47.086 22.4531 47.5303 22.6058 47.9861 22.8154L47.3572 24.3193C46.9789 24.1553 46.6211 24.0208 46.2839 23.916C45.9512 23.8112 45.6117 23.7588 45.2654 23.7588C44.96 23.7588 44.7299 23.7998 44.5749 23.8818C44.42 23.9639 44.3425 24.0892 44.3425 24.2578C44.3425 24.3809 44.3812 24.4902 44.4587 24.5859C44.5407 24.6816 44.6957 24.7887 44.9236 24.9072C45.156 25.0212 45.4955 25.1693 45.9421 25.3516C46.3751 25.5293 46.751 25.7161 47.07 25.9121C47.3891 26.1035 47.6351 26.3428 47.8083 26.6299C47.9815 26.9124 48.0681 27.2793 48.0681 27.7305ZM52.06 19.3633V21.5303C52.06 21.9085 52.0463 22.2686 52.019 22.6104C51.9962 22.9521 51.978 23.1937 51.9643 23.335H52.0737C52.2377 23.0706 52.4314 22.8564 52.6547 22.6924C52.8826 22.5283 53.1332 22.4076 53.4067 22.3301C53.6801 22.2526 53.9741 22.2139 54.2885 22.2139C54.8399 22.2139 55.3207 22.3118 55.7309 22.5078C56.1411 22.6992 56.4601 23.0023 56.6879 23.417C56.9158 23.8271 57.0297 24.3604 57.0297 25.0166V30H54.9448V25.5361C54.9448 24.9893 54.8445 24.5768 54.644 24.2988C54.4435 24.0208 54.1336 23.8818 53.7143 23.8818C53.295 23.8818 52.9646 23.9798 52.7231 24.1758C52.4816 24.3672 52.3107 24.652 52.2104 25.0303C52.1101 25.404 52.06 25.862 52.06 26.4043V30H49.975V19.3633H52.06ZM66.4015 26.165C66.4015 26.8031 66.3149 27.3682 66.1418 27.8604C65.9731 28.3525 65.7248 28.7695 65.3966 29.1113C65.0731 29.4486 64.6811 29.7038 64.2209 29.877C63.7651 30.0501 63.2502 30.1367 62.6759 30.1367C62.1382 30.1367 61.6437 30.0501 61.1925 29.877C60.7459 29.7038 60.3563 29.4486 60.0236 29.1113C59.6955 28.7695 59.4403 28.3525 59.258 27.8604C59.0802 27.3682 58.9914 26.8031 58.9914 26.165C58.9914 25.3174 59.1418 24.5996 59.4425 24.0117C59.7433 23.4238 60.1717 22.9772 60.7277 22.6719C61.2837 22.3665 61.9468 22.2139 62.717 22.2139C63.4324 22.2139 64.0659 22.3665 64.6173 22.6719C65.1733 22.9772 65.6086 23.4238 65.923 24.0117C66.242 24.5996 66.4015 25.3174 66.4015 26.165ZM61.1173 26.165C61.1173 26.6663 61.172 27.0879 61.2814 27.4297C61.3908 27.7715 61.5617 28.029 61.7941 28.2021C62.0265 28.3753 62.3296 28.4619 62.7033 28.4619C63.0724 28.4619 63.3709 28.3753 63.5988 28.2021C63.8312 28.029 63.9998 27.7715 64.1046 27.4297C64.214 27.0879 64.2687 26.6663 64.2687 26.165C64.2687 25.6592 64.214 25.2399 64.1046 24.9072C63.9998 24.57 63.8312 24.3171 63.5988 24.1484C63.3664 23.9798 63.0633 23.8955 62.6896 23.8955C62.1382 23.8955 61.7371 24.0846 61.4865 24.4629C61.2404 24.8411 61.1173 25.4085 61.1173 26.165ZM72.6561 22.2139C73.5175 22.2139 74.2124 22.5488 74.7411 23.2188C75.2743 23.8887 75.5409 24.8708 75.5409 26.165C75.5409 27.0309 75.4156 27.7601 75.1649 28.3525C74.9143 28.9404 74.5679 29.3848 74.1259 29.6855C73.6838 29.9863 73.1757 30.1367 72.6014 30.1367C72.2323 30.1367 71.9156 30.0911 71.6512 30C71.3869 29.9043 71.1613 29.7835 70.9745 29.6377C70.7876 29.4873 70.6259 29.3278 70.4891 29.1592H70.3798C70.4162 29.3415 70.4436 29.5283 70.4618 29.7197C70.48 29.9111 70.4891 30.098 70.4891 30.2803V33.3633H68.4042V22.3574H70.0995L70.3934 23.3486H70.4891C70.6259 23.1436 70.7922 22.9544 70.9882 22.7812C71.1841 22.6081 71.4188 22.4714 71.6923 22.3711C71.9703 22.2663 72.2915 22.2139 72.6561 22.2139ZM71.9862 23.8818C71.6216 23.8818 71.3322 23.957 71.118 24.1074C70.9038 24.2578 70.7466 24.4834 70.6464 24.7842C70.5507 25.085 70.4983 25.4655 70.4891 25.9258V26.1514C70.4891 26.6436 70.5347 27.0605 70.6259 27.4023C70.7216 27.7441 70.8788 28.0039 71.0975 28.1816C71.3208 28.3594 71.6262 28.4482 72.0135 28.4482C72.3326 28.4482 72.5946 28.3594 72.7997 28.1816C73.0048 28.0039 73.1574 27.7441 73.2577 27.4023C73.3625 27.056 73.4149 26.6344 73.4149 26.1377C73.4149 25.3903 73.2987 24.8275 73.0663 24.4492C72.8339 24.071 72.4738 23.8818 71.9862 23.8818Z" fill="#828282"/>
</svg>
